<svg id="visual" viewBox="0 0 900 600" width="900" height="600" xmlns="http://www.w3.org/2000/svg" xmlns:xlink="http://www.w3.org/1999/xlink" version="1.1"><rect x="0" y="0" width="900" height="600" fill="#715DF2"></rect><g transform="translate(498.6545895645045 279.00287064927045)"><path d="M116.3 -143.6C140.9 -118 144.3 -72 149.8 -28.3C155.4 15.5 163 57 153.2 102C143.4 147.1 116.2 195.7 76.6 209.8C37.1 224 -14.8 203.6 -72.9 187.9C-131.1 172.2 -195.4 161.1 -228.3 122.8C-261.2 84.5 -262.6 19 -239.9 -30.7C-217.3 -80.3 -170.7 -114.1 -126.7 -136.3C-82.7 -158.6 -41.4 -169.3 2.2 -172C45.9 -174.6 91.7 -169.3 116.3 -143.6" fill="#6600FF"></path></g></svg>